<?xml version="1.0" encoding="utf-8"?>
<!-- Svg Vector Icons : http://www.onlinewebfonts.com/icon -->
<!DOCTYPE svg PUBLIC "-//W3C//DTD SVG 1.1//EN" "http://www.w3.org/Graphics/SVG/1.1/DTD/svg11.dtd">
<svg version="1.1" xmlns="http://www.w3.org/2000/svg" xmlns:xlink="http://www.w3.org/1999/xlink" x="0px" y="0px" viewBox="0 0 256 256" enable-background="new 0 0 256 256" xml:space="preserve">
<metadata> Svg Vector Icons : http://www.onlinewebfonts.com/icon </metadata>
<g><g><g><path fill="#000000" d="M94.3,10.9c-5,1.7-9.4,6.4-10.7,11.3c-0.8,3.2-0.4,9.1,1.1,11.9c2.6,5.1,7.5,8.7,12.8,9.4l2.6,0.4l-0.2,27.8l-0.2,27.8l-1.4,4.6c-0.8,2.6-2,5.6-2.6,6.9c-0.6,1.2-15.2,26.4-32.4,55.9c-18.4,31.6-31.8,55-32.4,56.8c-1.3,3.9-1.4,8.5-0.2,12c1.2,3.5,5.3,7.6,9.4,9.2l3.2,1.3H128h84.7l3.2-1.3c4.1-1.6,8.2-5.7,9.4-9.2c1.2-3.5,1.1-8.1-0.2-12c-0.6-1.8-14.1-25.5-32.4-56.8c-17.2-29.5-31.8-54.7-32.4-55.9c-0.6-1.2-1.8-4.3-2.6-6.9l-1.4-4.6l-0.2-27.8l-0.2-27.8l2.6-0.4c5.3-0.7,10.1-4.2,12.9-9.4c1-1.9,1.2-3.1,1.2-7.3c0-4.2-0.2-5.4-1.2-7.3c-1.8-3.5-4.6-6.3-7.9-7.9l-3-1.5l-31.7-0.1C99.2,9.9,97,10,94.3,10.9z M158.3,21.7c1.8,0.8,3.4,3.1,3.4,5.1c0,2-1.6,4.3-3.4,5.1c-2.7,1.1-58,1.1-60.7,0c-1.8-0.8-3.4-3.1-3.4-5.1c0-1.9,1.6-4.3,3.3-5C100.1,20.7,155.7,20.6,158.3,21.7z M144.9,70.6c0,25.2,0.1,27.3,1.1,32.3c1.5,7.5,3.3,11.8,9.1,21.7c2.8,4.8,5.1,8.8,5.1,9c0,0.2-14.5,0.3-32.2,0.3c-17.7,0-32.2-0.2-32.2-0.3c0-0.2,2.3-4.2,5.1-9c5.9-10,7.6-14.2,9.1-21.6c1.1-5,1.1-7.1,1.1-32.3v-27H128h16.9V70.6z M190.8,185.8c16.9,29.1,23.9,41.5,24.1,42.9c0.3,2.5-0.4,4-2.6,5.2c-1.6,0.9-6.4,0.9-84.3,0.9c-82.3,0-82.6,0-84.4-1.1c-2.3-1.3-3.1-3.2-2.3-6c0.5-1.6,9.9-18,46-79.9l1.8-3h39h38.9L190.8,185.8z"/><path fill="#000000" d="M127.9,162.7c-1.2,0.6-2.9,3.6-7.9,13.7l-6.4,12.8l0.7,2.2c0.9,3.2,2.9,4.2,8.4,4.2c2.4,0,4.3,0.1,4.3,0.3c0,0.1-1.6,3.6-3.7,7.7c-2,4.1-3.7,8.1-3.7,8.9c0,2.2,1.8,4.6,3.9,5.3c1.6,0.5,2.2,0.5,3.9-0.4c1.8-0.9,2.4-2,8.5-13.9c6.4-12.7,6.5-13,5.9-14.9c-1.1-3.3-2.6-4.1-8-4.1c-2.8,0-4.7-0.2-4.7-0.5s1.7-3.9,3.7-7.9c4.3-8.5,4.5-9.9,1.9-12.5C132.6,161.6,130.4,161.3,127.9,162.7z"/></g></g></g>
</svg>